<svg xmlns="http://www.w3.org/2000/svg" viewBox="0 0 1080 1080" preserveAspectRatio="xMidYMid" width="1080" height="1080" style="shape-rendering: auto; display: block; background: transparent;" xmlns:xlink="http://www.w3.org/1999/xlink"><g><linearGradient y2="0" y1="0" x2="1" x1="0" id="lg-0.6088930474361304">
  <stop offset="0" stop-color="#9370db"></stop>
  <stop offset="1" stop-color="#b447e9"></stop>
</linearGradient><path opacity="0.4" fill="url(#lg-0.6088930474361304)" d="M 877 540 C 877 626 697 743 615 770 C 533 797 386 759 335 689 C 284 619 278 457 329 387 C 380 317 525 306 607 333 C 689 360 877 454 877 540">
  <animate values="M 877 540 C 877 626 697 743 615 770 C 533 797 386 759 335 689 C 284 619 278 457 329 387 C 380 317 525 306 607 333 C 689 360 877 454 877 540;M 864 540 C 864 639 710 742 616 773 C 522 804 348 802 290 722 C 232 642 215 426 273 346 C 331 266 517 292 611 323 C 705 354 864 441 864 540;M 875 540 C 875 632 709 759 621 788 C 533 817 360 785 306 710 C 252 635 247 441 301 366 C 355 291 519 305 607 333 C 695 361 875 448 875 540;M 877 540 C 877 626 697 743 615 770 C 533 797 386 759 335 689 C 284 619 278 457 329 387 C 380 317 525 306 607 333 C 689 360 877 454 877 540" begin="-4s" keySplines="0.3 0.1 0.7 0.9;0.3 0.1 0.7 0.9;0.3 0.1 0.7 0.9" keyTimes="0;0.3333333333333333;0.6666666666666666;1" repeatCount="indefinite" dur="10s" attributeName="d"></animate>
</path><path opacity="0.4" fill="url(#lg-0.6088930474361304)" d="M 891 540 C 891 629 702 752 618 779 C 534 806 325 806 273 734 C 221 662 266 451 318 379 C 370 307 532 280 616 307 C 700 334 891 451 891 540">
  <animate values="M 891 540 C 891 629 702 752 618 779 C 534 806 325 806 273 734 C 221 662 266 451 318 379 C 370 307 532 280 616 307 C 700 334 891 451 891 540;M 842 540 C 842 624 698 754 618 780 C 538 806 379 762 329 694 C 279 626 285 459 335 391 C 385 323 524 318 604 344 C 684 370 842 456 842 540;M 839 540 C 839 626 692 728 610 755 C 528 782 356 781 305 711 C 254 641 231 422 282 352 C 333 282 517 332 599 359 C 681 386 839 454 839 540;M 891 540 C 891 629 702 752 618 779 C 534 806 325 806 273 734 C 221 662 266 451 318 379 C 370 307 532 280 616 307 C 700 334 891 451 891 540" begin="-4s" keySplines="0.3 0.1 0.7 0.9;0.3 0.1 0.7 0.9;0.3 0.1 0.7 0.9" keyTimes="0;0.3333333333333333;0.6666666666666666;1" repeatCount="indefinite" dur="10s" attributeName="d"></animate>
</path><path opacity="0.4" fill="url(#lg-0.6088930474361304)" d="M 860 540 C 860 636 713 763 622 793 C 531 823 317 822 260 744 C 203 666 215 423 271 345 C 327 267 536 243 627 273 C 718 303 860 444 860 540">
  <animate values="M 860 540 C 860 636 713 763 622 793 C 531 823 317 822 260 744 C 203 666 215 423 271 345 C 327 267 536 243 627 273 C 718 303 860 444 860 540;M 876 540 C 876 626 687 712 605 739 C 523 766 360 777 309 708 C 258 639 243 430 294 361 C 345 292 535 276 617 302 C 699 328 876 454 876 540;M 854 540 C 854 637 720 778 627 808 C 534 838 311 827 254 748 C 197 669 197 411 254 332 C 311 253 522 278 615 308 C 708 338 854 443 854 540;M 860 540 C 860 636 713 763 622 793 C 531 823 317 822 260 744 C 203 666 215 423 271 345 C 327 267 536 243 627 273 C 718 303 860 444 860 540" begin="-4s" keySplines="0.3 0.1 0.7 0.9;0.3 0.1 0.7 0.9;0.3 0.1 0.7 0.9" keyTimes="0;0.3333333333333333;0.6666666666666666;1" repeatCount="indefinite" dur="10s" attributeName="d"></animate>
</path><path opacity="0.4" fill="url(#lg-0.6088930474361304)" d="M 868 540 C 868 625 690 725 609 751 C 528 777 362 775 312 706 C 262 637 259 441 309 372 C 359 303 537 274 618 300 C 699 326 868 455 868 540">
  <animate values="M 868 540 C 868 625 690 725 609 751 C 528 777 362 775 312 706 C 262 637 259 441 309 372 C 359 303 537 274 618 300 C 699 326 868 455 868 540;M 834 540 C 834 624 695 744 615 770 C 535 796 385 756 336 688 C 287 620 247 431 296 363 C 345 295 523 321 603 347 C 683 373 834 456 834 540;M 818 540 C 818 622 687 728 609 753 C 531 778 388 752 340 686 C 292 620 264 440 312 374 C 360 308 533 296 611 321 C 689 346 818 458 818 540;M 868 540 C 868 625 690 725 609 751 C 528 777 362 775 312 706 C 262 637 259 441 309 372 C 359 303 537 274 618 300 C 699 326 868 455 868 540" begin="-4s" keySplines="0.3 0.1 0.7 0.9;0.3 0.1 0.7 0.9;0.3 0.1 0.7 0.9" keyTimes="0;0.3333333333333333;0.6666666666666666;1" repeatCount="indefinite" dur="10s" attributeName="d"></animate>
</path><path opacity="0.4" fill="url(#lg-0.6088930474361304)" d="M 832 540 C 832 626 682 700 601 727 C 520 754 352 782 302 713 C 252 644 237 425 287 356 C 337 287 518 331 599 357 C 680 383 832 454 832 540">
  <animate values="M 832 540 C 832 626 682 700 601 727 C 520 754 352 782 302 713 C 252 644 237 425 287 356 C 337 287 518 331 599 357 C 680 383 832 454 832 540;M 861 540 C 861 638 703 723 610 754 C 517 785 314 825 256 746 C 198 667 187 405 245 326 C 303 247 516 296 609 326 C 702 356 861 442 861 540;M 817 540 C 817 628 696 735 612 762 C 528 789 350 787 298 716 C 246 645 235 427 287 356 C 339 285 516 328 600 355 C 684 382 817 452 817 540;M 832 540 C 832 626 682 700 601 727 C 520 754 352 782 302 713 C 252 644 237 425 287 356 C 337 287 518 331 599 357 C 680 383 832 454 832 540" begin="-4s" keySplines="0.3 0.1 0.7 0.9;0.3 0.1 0.7 0.9;0.3 0.1 0.7 0.9" keyTimes="0;0.3333333333333333;0.6666666666666666;1" repeatCount="indefinite" dur="10s" attributeName="d"></animate>
</path><g></g></g><!-- [ldio] generated by https://loading.io --></svg>