<svg xmlns="http://www.w3.org/2000/svg" viewBox="0 0 512 512" preserveAspectRatio="xMidYMid" width="512" height="512" style="shape-rendering: auto; display: block; background: rgb(255, 209, 103);" xmlns:xlink="http://www.w3.org/1999/xlink"><g><g opacity="0.4" transform="translate(587.3733608959785,15.243160661003003) scale(100)">
  <path stroke-width="0" fill="#00aeef" d="M4.01408 0 C4.01408 0.8191999999999998 4.027784854979083 1.3795119892197878 3.6181848549790825 2.0889599999999997 S2.7164880107802123 3.066695252823039 2.0070400000000004 3.4762952528230393 S0.8192 4.17792 2.558238177546855e-16 4.17792 S-1.2975919892197871 3.8858952528230395 -2.007039999999999 3.4762952528230397 S-3.2085848549790814 2.7984080107802134 -3.6181848549790816 2.0889600000000015 S-4.01408 0.8192000000000003 -4.01408 4.915830223521408e-16 S-4.027784854979083 -1.3795119892197867 -3.618184854979083 -2.088959999999999 S-2.7164880107802136 -3.0666952528230382 -2.0070400000000017 -3.4762952528230384 S-0.8192000000000006 -4.17792 -7.674714532640565e-16 -4.17792 S1.297591989219785 -3.8858952528230404 2.0070399999999973 -3.476295252823041 S3.208584854979081 -2.798408010780214 3.618184854979081 -2.088960000000002 S4.01408 -0.8192000000000008 4.01408 -9.831660447042816e-16">
    <animateTransform values="0;60" repeatCount="indefinite" dur="10s" type="rotate" attributeName="transform"></animateTransform>
  </path>
</g><g opacity="0.4" transform="translate(653.6480330751742,-32.90820720679636) scale(100)">
  <path stroke-width="0" fill="#9c7cf2" d="M4.816896 0 C4.816896 0.9830399999999997 4.833341825974897 1.655414387063745 4.341821825974898 2.506751999999999 S3.2597856129362546 3.680034303387647 2.4084480000000004 4.171554303387647 S0.98304 5.013503999999999 3.0698858130562253e-16 5.013503999999999 S-1.5571103870637448 4.663074303387647 -2.408447999999999 4.171554303387648 S-3.8503018259748965 3.3580896129362556 -4.341821825974897 2.5067520000000014 S-4.816896 0.9830400000000002 -4.816896 5.898996268225689e-16 S-4.833341825974898 -1.6554143870637439 -4.341821825974899 -2.5067519999999983 S-3.2597856129362563 -3.6800343033876457 -2.408448000000002 -4.171554303387646 S-0.9830400000000006 -5.013503999999999 -9.209657439168676e-16 -5.013503999999999 S1.5571103870637422 -4.663074303387648 2.408447999999997 -4.171554303387649 S3.8503018259748956 -3.358089612936256 4.341821825974896 -2.506752000000002 S4.816896 -0.9830400000000009 4.816896 -1.1797992536451378e-15">
    <animateTransform values="0;60" repeatCount="indefinite" dur="5s" type="rotate" attributeName="transform"></animateTransform>
  </path>
</g><g opacity="0.4" transform="translate(812.7072463052438,-148.47149008951493) scale(100)">
  <path stroke-width="0" fill="#ed008c" d="M6.7436544 0 C6.7436544 1.3762559999999995 6.766678556364857 2.317580141889243 6.078550556364857 3.509452799999999 S4.563699858110756 5.152048024742705 3.3718272000000007 5.840176024742705 S1.376256 7.018905599999999 4.297840138278716e-16 7.018905599999999 S-2.1799545418892423 6.528304024742706 -3.3718271999999985 5.840176024742706 S-5.390422556364856 4.701325458110757 -6.078550556364855 3.509452800000002 S-6.7436544 1.3762560000000004 -6.7436544 8.258594775515964e-16 S-6.766678556364857 -2.3175801418892417 -6.078550556364858 -3.509452799999998 S-4.563699858110758 -5.152048024742704 -3.371827200000003 -5.840176024742704 S-1.3762560000000008 -7.018905599999999 -1.2893520414836146e-15 -7.018905599999999 S2.1799545418892388 -6.528304024742708 3.3718271999999954 -5.840176024742709 S5.390422556364855 -4.701325458110758 6.078550556364855 -3.5094528000000027 S6.7436544 -1.376256000000001 6.7436544 -1.6517189551031928e-15">
    <animateTransform values="0;60" repeatCount="indefinite" dur="3.3333333333333335s" type="rotate" attributeName="transform"></animateTransform>
  </path>
</g><g></g></g><!-- [ldio] generated by https://loading.io --></svg>